<svg width="28.000000000000004" height="28.000000000000004" xmlns="http://www.w3.org/2000/svg">

 <g>
  <title>background</title>
  <rect fill="none" id="canvas_background" height="402" width="582" y="-1" x="-1"/>
 </g>
 <g>
  <title>Layer 1</title>
  <path id="svg_1" fill-rule="evenodd" fill="#ffffff" d="m12.2852,4.05704c-4.54428,0 -8.22816,3.68388 -8.22816,8.22816c0,4.5443 3.68388,8.2282 8.22816,8.2282c4.5443,0 8.2282,-3.6839 8.2282,-8.2282c0,-4.54428 -3.6839,-8.22816 -8.2282,-8.22816zm-10.2852,8.22816c0,-5.68035 4.60485,-10.2852 10.2852,-10.2852c5.6804,0 10.2852,4.60485 10.2852,10.2852c0,5.6804 -4.6048,10.2852 -10.2852,10.2852c-5.68035,0 -10.2852,-4.6048 -10.2852,-10.2852z" clip-rule="evenodd"/>
  <path id="svg_2" fill="#ffffff" d="m19.8786,18.3487l5.8043,5.8043c0.4228,0.4228 0.4228,1.1083 0,1.5311c-0.4228,0.4228 -1.1083,0.4228 -1.5311,0l-5.8043,-5.8043l1.5311,-1.5311z"/>
 </g>
</svg>