<svg width="24" height="24" xmlns="http://www.w3.org/2000/svg">

 <g>
  <title>background</title>
  <rect fill="none" id="canvas_background" height="402" width="582" y="-1" x="-1"/>
 </g>
 <g>
  <title>Layer 1</title>
  <path id="svg_1" fill="#ffffff" d="m6,2c-2.20914,0 -4,1.79086 -4,4l0,3l2,0l0,-3c0,-1.10457 0.89543,-2 2,-2l12,0c1.1046,0 2,0.89543 2,2l0,12c0,1.1046 -0.8954,2 -2,2l-12,0c-1.10457,0 -2,-0.8954 -2,-2l0,-3l-2,0l0,3c0,2.2091 1.79086,4 4,4l12,0c2.2091,0 4,-1.7909 4,-4l0,-12c0,-2.20914 -1.7909,-4 -4,-4l-12,0z"/>
  <path id="svg_2" fill="#ffffff" d="m3,11c-0.55228,0 -1,0.4477 -1,1c0,0.5523 0.44772,1 1,1l9.5825,0l-2.5356,2.5355c-0.3905,0.3906 -0.3905,1.0237 0,1.4143c0.3905,0.3905 1.0237,0.3905 1.4142,0l4.1957,-4.1957c0.2103,-0.1834 0.3432,-0.4532 0.3432,-0.7541c0,-0.3009 -0.1329,-0.5707 -0.3432,-0.7541l-4.1957,-4.19565c-0.3905,-0.39053 -1.0237,-0.39053 -1.4142,0c-0.3905,0.39052 -0.3905,1.02369 0,1.41421l2.5356,2.53554l-9.5825,0z"/>
 </g>
</svg>